<svg xmlns="http://www.w3.org/2000/svg" viewBox="0 0 556 119" width="556" height="119">
  <g transform="translate(15.05, 81.51)">
    <path d="M12.63 0.00L0.95 0.00L24.16 -64.33L35.76 -64.33L58.99 0.00L47.10 0.00L41.91 -14.86L17.85 -14.86L12.63 0.00ZM28.49 -45.12L21.16 -24.40L38.66 -24.40L31.28 -45.12Q30.88 -46.42 30.46 -47.77Q30.03 -49.12 29.88 -50.03Q29.74 -49.15 29.36 -47.80Q28.98 -46.46 28.49 -45.12Z" fill="#1A2340"></path>
    <path d="M93.32 -43.47L104.02 -43.47L104.02 0.00L94.11 0.00L93.25 -5.80Q91.34 -2.70 87.46 -0.79Q83.59 1.12 79.24 1.12Q71.73 1.12 67.52 -3.60Q63.31 -8.32 63.31 -16.32L63.31 -43.50L74.03 -43.50L74.03 -20.08Q74.03 -13.90 76.42 -11.16Q78.80 -8.43 83.28 -8.43Q88.37 -8.43 90.84 -11.46Q93.32 -14.48 93.32 -20.70L93.32 -43.47Z" fill="#1A2340"></path>
    <path d="M142.38 -43.66L142.38 -33.67L138.41 -33.67Q132.57 -33.67 129.21 -30.55Q125.84 -27.43 125.84 -21.08L125.84 0.00L115.14 0.00L115.14 -43.41L125.21 -43.41L126.08 -34.39L125.08 -34.39Q125.96 -38.71 129.19 -41.47Q132.42 -44.22 137.63 -44.22Q138.78 -44.22 139.93 -44.10Q141.07 -43.98 142.38 -43.66Z" fill="#1A2340"></path>
    <path d="M160.86 1.12Q153.96 1.12 149.97 -2.59Q145.98 -6.30 145.98 -12.41Q145.98 -18.40 150.18 -21.98Q154.37 -25.56 162.13 -26.18L175.11 -27.20L175.11 -28.17Q175.11 -31.13 173.99 -32.96Q172.88 -34.78 170.89 -35.62Q168.91 -36.46 166.18 -36.46Q161.39 -36.46 158.83 -34.57Q156.27 -32.68 156.27 -29.19L147.17 -29.19Q147.17 -33.94 149.58 -37.44Q151.98 -40.94 156.42 -42.86Q160.85 -44.77 166.70 -44.77Q172.57 -44.77 176.77 -42.71Q180.98 -40.65 183.27 -36.55Q185.57 -32.45 185.57 -26.38L185.57 0.00L176.21 0.00L175.36 -6.44Q173.96 -3.05 169.95 -0.97Q165.94 1.12 160.86 1.12ZM164.34 -6.99Q169.29 -6.99 172.23 -9.79Q175.17 -12.59 175.17 -17.56L175.17 -19.91L166.12 -19.14Q161.11 -18.74 158.99 -17.12Q156.87 -15.51 156.87 -12.87Q156.87 -9.91 158.81 -8.45Q160.76 -6.99 164.34 -6.99Z" fill="#1A2340"></path>
    <path d="M206.99 0.00L196.29 0.00L196.29 -65.51L206.99 -65.51L206.99 0.00Z" fill="#1A2340"></path>
    <path d="M218.28 20.14L218.28 -43.47L228.18 -43.47L228.86 -36.86Q230.87 -40.66 234.89 -42.72Q238.90 -44.77 243.80 -44.77Q249.99 -44.77 254.55 -41.98Q259.11 -39.19 261.64 -34.14Q264.18 -29.09 264.18 -22.23Q264.18 -15.49 261.80 -10.19Q259.42 -4.90 254.89 -1.86Q250.36 1.18 243.87 1.18Q238.97 1.18 235.00 -0.70Q231.02 -2.57 228.98 -5.83L228.98 20.14L218.28 20.14ZM229.06 -21.74Q229.06 -17.87 230.57 -14.86Q232.08 -11.85 234.85 -10.17Q237.61 -8.49 241.33 -8.49Q245.12 -8.49 247.80 -10.20Q250.49 -11.92 251.94 -14.89Q253.39 -17.87 253.39 -21.74Q253.39 -25.63 251.94 -28.60Q250.49 -31.58 247.80 -33.28Q245.12 -34.98 241.33 -34.98Q237.61 -34.98 234.85 -33.31Q232.08 -31.64 230.57 -28.67Q229.06 -25.69 229.06 -21.74Z" fill="#3B5BDB"></path>
    <path d="M297.40 0.00L274.29 0.00L274.29 -64.33L296.79 -64.33Q306.35 -64.33 313.56 -60.26Q320.77 -56.19 324.84 -48.91Q328.91 -41.64 328.91 -32.04Q328.91 -22.59 324.93 -15.36Q320.95 -8.14 313.87 -4.07Q306.79 0.00 297.40 0.00ZM285.53 -59.14L285.53 -5.07L280.21 -10.40L296.42 -10.40Q302.84 -10.40 307.47 -13.02Q312.09 -15.64 314.59 -20.50Q317.08 -25.37 317.08 -32.04Q317.08 -38.86 314.51 -43.76Q311.93 -48.66 307.19 -51.29Q302.44 -53.93 295.80 -53.93L280.21 -53.93L285.53 -59.14Z" fill="#9AA3B2"></path>
    <path d="M337.87 0.00L337.87 -43.47L348.57 -43.47L348.57 0.00L337.87 0.00ZM343.16 -52.16Q340.43 -52.16 338.53 -54.06Q336.63 -55.96 336.63 -58.66Q336.63 -61.39 338.53 -63.27Q340.43 -65.16 343.16 -65.16Q345.82 -65.16 347.72 -63.27Q349.62 -61.39 349.62 -58.66Q349.62 -55.96 347.72 -54.06Q345.82 -52.16 343.16 -52.16Z" fill="#9AA3B2"></path>
    <path d="M357.20 -22.69Q357.20 -29.06 359.78 -34.04Q362.36 -39.03 367.03 -41.93Q371.71 -44.84 377.90 -44.84Q383.43 -44.84 387.38 -42.38Q391.34 -39.93 392.90 -35.68L391.74 -34.66L392.69 -43.47L402.60 -43.47L402.60 -2.24Q402.60 5.02 399.83 10.32Q397.06 15.63 391.98 18.49Q386.90 21.36 379.83 21.36Q370.45 21.36 364.47 16.34Q358.49 11.33 357.42 2.63L368.22 2.63Q368.71 6.88 371.77 9.25Q374.84 11.62 379.80 11.62Q385.36 11.62 388.64 8.40Q391.93 5.17 391.93 -0.26L391.93 -11.12L393.18 -9.98Q391.62 -5.81 387.38 -3.33Q383.15 -0.84 377.58 -0.84Q371.45 -0.84 366.86 -3.69Q362.27 -6.53 359.74 -11.47Q357.20 -16.40 357.20 -22.69ZM367.99 -22.93Q367.99 -19.32 369.45 -16.45Q370.92 -13.58 373.56 -11.89Q376.21 -10.21 379.76 -10.21Q383.42 -10.21 386.12 -11.84Q388.82 -13.46 390.27 -16.33Q391.71 -19.20 391.71 -22.96Q391.71 -26.72 390.28 -29.50Q388.85 -32.28 386.17 -33.88Q383.50 -35.47 379.75 -35.47Q376.15 -35.47 373.50 -33.84Q370.86 -32.20 369.42 -29.37Q367.99 -26.55 367.99 -22.93Z" fill="#9AA3B2"></path>
    <path d="M413.72 0.00L413.72 -43.47L424.42 -43.47L424.42 0.00L413.72 0.00ZM419.01 -52.16Q416.28 -52.16 414.38 -54.06Q412.48 -55.96 412.48 -58.66Q412.48 -61.39 414.38 -63.27Q416.28 -65.16 419.01 -65.16Q421.68 -65.16 423.58 -63.27Q425.48 -61.39 425.48 -58.66Q425.48 -55.96 423.58 -54.06Q421.68 -52.16 419.01 -52.16Z" fill="#9AA3B2"></path>
    <path d="M431.17 -43.47L458.70 -43.47L458.70 -34.53L431.17 -34.53L431.17 -43.47ZM450.29 0.00L439.59 0.00L439.59 -57.03L450.29 -57.03L450.29 0.00Z" fill="#9AA3B2"></path>
    <path d="M478.10 1.12Q471.20 1.12 467.21 -2.59Q463.22 -6.30 463.22 -12.41Q463.22 -18.40 467.42 -21.98Q471.61 -25.56 479.37 -26.18L492.35 -27.20L492.35 -28.17Q492.35 -31.13 491.23 -32.96Q490.12 -34.78 488.13 -35.62Q486.15 -36.46 483.42 -36.46Q478.63 -36.46 476.07 -34.57Q473.51 -32.68 473.51 -29.19L464.41 -29.19Q464.41 -33.94 466.82 -37.44Q469.22 -40.94 473.66 -42.86Q478.09 -44.77 483.94 -44.77Q489.81 -44.77 494.01 -42.71Q498.22 -40.65 500.51 -36.55Q502.81 -32.45 502.81 -26.38L502.81 0.00L493.45 0.00L492.60 -6.44Q491.20 -3.05 487.19 -0.97Q483.18 1.12 478.10 1.12ZM481.58 -6.99Q486.53 -6.99 489.47 -9.79Q492.41 -12.59 492.41 -17.56L492.41 -19.91L483.36 -19.14Q478.35 -18.74 476.23 -17.12Q474.11 -15.51 474.11 -12.87Q474.11 -9.91 476.05 -8.45Q478.00 -6.99 481.58 -6.99Z" fill="#9AA3B2"></path>
    <path d="M524.23 0.00L513.53 0.00L513.53 -65.51L524.23 -65.51L524.23 0.00Z" fill="#9AA3B2"></path>
  </g>
</svg>